# AST/ASF file generated using VICON BodyLanguage
# -----------------------------------------------
:version 1.10
:name VICON
:units
  mass 1.0
  length 0.45
  angle deg
:documentation
   .ast/.asf automatically generated from VICON data using
   VICON BodyBuilder and BodyLanguage model FoxedUp or BRILLIANT.MOD
:root
   order TX TY TZ RX RY RZ
   axis XYZ
   position 0 0 0  
   orientation 0 0 0 
:bonedata
  begin
     id 1 
     name lhipjoint
     direction 0.756833 -0.6125 0.228138 
     length 2.53827 
     axis 0 0 0  XYZ
  end
  begin
     id 2 
     name lfemur
     direction 0.34202 -0.939693 0  
     length 6.51821  
     axis 0 0 20  XYZ
    dof rx ry rz
    limits (-160.0 20.0)
           (-70.0 70.0)
           (-60.0 70.0)
  end
  begin
     id 3 
     name ltibia
     direction 0.34202 -0.939693 0   
     length 6.99902   
     axis 0 0 20   XYZ
    dof rx
    limits (-10.0 170.0)
  end
  begin
     id 4 
     name lfoot
     direction 0.0951515 -0.261427 0.960522   
     length 1.92102   
     axis -90 7.62852e-016 20   XYZ
    dof rx rz
    limits (-45.0 90.0)
           (-70.0 20.0)
  end
  begin
     id 5 
     name ltoes
     direction 1.53539e-011 -4.21781e-011 1   
     length 0.964376   
     axis -90 7.62852e-016 20   XYZ
    dof rx
    limits (-90.0 20.0)
  end
  begin
     id 6 
     name rhipjoint
     direction -0.752153 -0.617542 0.230017   
     length 2.51754  
     axis 0 0 0  XYZ 
  end
  begin
     id 7 
     name rfemur
     direction -0.34202 -0.939693 0   
     length 6.82377   
     axis 0 0 -20   XYZ
    dof rx ry rz
    limits (-160.0 20.0)
           (-70.0 70.0)
           (-70.0 60.0)
  end
  begin
     id 8 
     name rtibia
     direction -0.34202 -0.939693 0   
     length 6.98689   
     axis 0 0 -20   XYZ
    dof rx
    limits (-10.0 170.0)
 end
 begin
     id 9 
     name rfoot
     direction -0.0900426 -0.24739 0.964723   
     length 2.03215  
     axis -90 -7.62852e-016 -20   XYZ
    dof rx rz
    limits (-45.0 90.0)
           (-20.0 70.0)
  end
  begin
     id 10 
     name rtoes
     direction -1.53466e-011 -4.22206e-011 1   
     length 1.0197   
     axis -90 -7.62852e-016 -20   XYZ
    dof rx
    limits (-90.0 20.0)
  end
  begin
     id 11 
     name lowerback
     direction 0.0184183 0.995705 -0.0907278   
     length 2.019   
     axis 0 0 0   XYZ
    dof rx ry rz
    limits (-20.0 45.0)
           (-30.0 30.0)
           (-30.0 30.0)
  end
  begin
     id 12 
     name upperback
     direction 0.00281055 0.998777 0.0493607   
     length 1.99623   
     axis 0 0 0   XYZ
    dof rx ry rz
    limits (-20.0 45.0)
           (-30.0 30.0)
           (-30.0 30.0)
  end
  begin
     id 13 
     name thorax
     direction -0.00665507 0.995706 0.092331   
     length 2.02811   
     axis 0 0 0   XYZ
    dof rx ry rz
    limits (-20.0 45.0)
           (-30.0 30.0)
           (-30.0 30.0)
  end
  begin
     id 14 
     name lowerneck
     direction -0.0960965 0.994358 0.0449225   
     length 1.71265   
     axis 0 0 0   XYZ
    dof rx ry rz
    limits (-20.0 45.0)
           (-30.0 30.0)
           (-30.0 30.0)
  end
  begin
     id 15 
     name upperneck
     direction 0.13642 0.985357 -0.102278   
     length 1.73016   
     axis 0 0 0   XYZ
    dof rx ry rz
    limits (-20.0 45.0)
           (-30.0 30.0)
           (-30.0 30.0)
  end
  begin
     id 16
     name head
     direction 0.0556079 0.997632 -0.040479  
     length 1.74275  
     axis 0 0 0   XYZ
    dof rx ry rz
    limits (-20.0 45.0)
           (-30.0 30.0)
           (-30.0 30.0)
  end
  begin
     id 17 
     name lclavicle
     direction 0.90877 0.417247 -0.00652364  
     length 3.25514  
     axis 0 0 0   XYZ
    dof ry rz
    limits (-20.0 10.0)
           (0.0 20.0)
  end
  begin
     id 18 
     name lhumerus
     direction 1 -4.48949e-011 8.31417e-028   
     length 4.84834   
     axis 180 -30 -90   XYZ
    dof rx ry rz
    limits (-60.0 90.0)
           (-90.0 90.0)
           (-90.0 90.0)
  end
  begin
     id 19
     name lradius
     direction 1 -4.48984e-011 3.45616e-027   
     length 2.99713   
     axis 180 -30 -90   XYZ
    dof rx
    limits (-10.0 170.0)
  end
  begin
     id 20
     name lwrist
     direction 1 -4.4891e-011 4.0479e-027   
     length 1.49857   
     axis -1.61768e-015 90 90   XYZ
    dof ry
    limits (-180.0 0.0)
 end
  begin
     id 21 
     name lhand
     direction 1 -4.49025e-011 8.0958e-027   
     length 0.693987   
     axis -5.16581e-015 90 90   XYZ
    dof rx rz
    limits (-90.0 90.0)
           (-45.0 45.0)
  end
  begin
     id 22 
     name lfingers
     direction 1 -4.4888e-011 1.61916e-026   
     length 0.55951   
     axis -1.03316e-014 90 90   XYZ
    dof rx
    limits (0.0 90.0)
  end
  begin
     id 23
     name lthumb
     direction 0.707107 -6.3493e-011 0.707107   
     length 0.803348   
     axis -90 45 2.85299e-015   XYZ
    dof rx rz
    limits (-45.0 45.0)
           (-45.0 45.0)
  end
  begin
     id 24 
     name rclavicle
     direction -0.906655 0.41906 0.0486307   
     length 3.3311  
     axis 0 0 0   XYZ 
    dof ry rz
    limits (-10.0 20.0)
           (-20.0 0.0)
  end
  begin
     id 25 
     name rhumerus
     direction -1 -4.48959e-011 6.37764e-018  
     length 4.93457   
     axis 180 30 90   XYZ
    dof rx ry rz
    limits (-90.0 60.0)
           (-90.0 90.0)
           (-90.0 90.0)
  end
  begin
     id 26 
     name rradius
     direction -1 -4.48957e-011 2.20847e-027   
     length 3.3443   
     axis 180 30 90   XYZ
    dof rx
    limits (-10.0 170.0)
  end
  begin
     id 27 
     name rwrist
     direction -1 -4.49008e-011 4.0479e-027   
     length 1.67215   
     axis -1.61768e-015 -90 -90   XYZ
    dof ry
    limits (-180.0 0.0)
  end
  begin
     id 28
     name rhand
     direction -1 -4.49013e-011 8.0958e-027   
     length 0.677363   
     axis -5.16581e-015 -90 -90   XYZ
    dof rx rz
    limits (-90.0 90.0)
           (-45.0 45.0)
  end
  begin
     id 29
     name rfingers
     direction -1 -4.48832e-011 1.61916e-026   
     length 0.546107   
     axis -1.03316e-014 -90 -90   XYZ
    dof rx
    limits (0.0 90.0)
  end
  begin
     id 30
     name rthumb
     direction -0.707107 -6.34895e-011 0.707107   
     length 0.784104   
     axis -90 -45 -2.85299e-015   XYZ
    dof rx rz
    limits (-45.0 45.0)
           (-45.0 45.0)
  end
:hierarchy
  begin
    root lhipjoint rhipjoint lowerback
    lhipjoint lfemur
    lfemur ltibia
    ltibia lfoot
    lfoot ltoes
    rhipjoint rfemur
    rfemur rtibia
    rtibia rfoot
    rfoot rtoes
    lowerback upperback
    upperback thorax
    thorax lowerneck lclavicle rclavicle
    lowerneck upperneck
    upperneck head
    lclavicle lhumerus
    lhumerus lradius
    lradius lwrist
    lwrist lhand lthumb
    lhand lfingers
    rclavicle rhumerus
    rhumerus rradius
    rradius rwrist
    rwrist rhand rthumb
    rhand rfingers
  end

#!OML:ASF H:\Terrain\Patient Classification 1\junglegym\FridayTest\junglegym.ASF
:FULLY-SPECIFIED
:DEGREES
707
root 1.99599 17.1719 1.19079 169.554 -75.0371 -160.798
lowerback 14.5518 0.530107 2.97722
upperback -4.05689 1.04906 -1.94942
thorax -12.6152 0.156361 -4.11069
lowerneck 6.92495 1.69109 -6.52942
upperneck 38.271 -4.91458 11.418
head 11.8713 -3.33594 5.01248
rclavicle 1.0635e-014 5.56597e-015
rhumerus 83.3694 -6.22498 -72.697
rradius 41.1357
rwrist 6.48126
rhand -20.4512 30.0742
rfingers 7.12502
rthumb 5.90422 0.176513
lclavicle 1.0635e-014 5.56597e-015
lhumerus 91.9204 7.23434 64.3146
lradius 39.8095
lwrist -35.6457
lhand -18.0317 19.5828
lfingers 7.12502
lthumb 8.23972 49.4022
rfemur -32.1563 3.36101 28.392
rtibia 49.1977
rfoot 12.4577 -1.9504
rtoes 5.59967
lfemur -31.9995 4.05496 -21.192
ltibia 40.4617
lfoot 2.69964 2.30885
ltoes -28.6771
708
root 2.24064 17.2446 1.23832 170.26 -74.9837 -160.904
lowerback 14.2072 0.496078 3.27007
upperback -3.90469 1.04883 -1.9721
thorax -12.2299 0.147176 -4.28727
lowerneck 6.52531 1.78078 -6.69326
upperneck 38.5627 -4.80619 11.4362
head 12.0645 -3.29243 5.07076
rclavicle -3.57812e-015 4.77083e-015
rhumerus 83.8576 -6.02203 -71.9157
rradius 40.1514
rwrist 6.68902
rhand -20.1632 29.7931
rfingers 7.12502
rthumb 6.18227 -0.0967362
lclavicle -3.57812e-015 4.77083e-015
lhumerus 91.7215 7.57465 63.7026
lradius 39.1886
lwrist -35.5141
lhand -17.5298 19.6643
lfingers 7.12502
lthumb 8.7241 49.464
rfemur -31.5264 2.59193 28.1629
rtibia 49.1493
rfoot 13.3451 -1.59592
rtoes 4.82386
lfemur -31.6642 4.14239 -21.3102
ltibia 40.7819
lfoot 2.51046 2.50027
ltoes -24.4876
709
root 2.49806 17.305 1.28363 168.964 -74.556 -159.048
lowerback 14.1658 0.456134 3.74773
upperback -3.87927 1.15034 -1.4536
thorax -12.1687 0.188559 -4.00733
lowerneck 6.47828 2.08611 -7.7122
upperneck 38.744 -4.36285 11.5012
head 12.1072 -3.22552 5.32887
rclavicle 2.93207e-014 1.59028e-015
rhumerus 84.2359 -5.58159 -69.9846
rradius 39.1028
rwrist 6.08835
rhand -19.3905 30.999
rfingers 7.12502
rthumb 6.92819 1.13233
lclavicle 2.93207e-014 1.59028e-015
lhumerus 91.235 8.1504 63.8671
lradius 38.4481
lwrist -35.2579
lhand -16.9918 19.0148
lfingers 7.12502
lthumb 9.24325 48.7922
rfemur -30.813 2.53422 28.4431
rtibia 49.167
rfoot 13.364 -1.44672
rtoes 3.36347
lfemur -31.4974 4.2604 -20.7063
ltibia 41.2733
lfoot 2.92964 2.45581
ltoes -28.9438
710
root 2.74928 17.3437 1.33065 167.018 -74.098 -156.028
lowerback 13.6558 0.431987 4.5035
upperback -4.03069 1.3098 -0.851325
thorax -12.0224 0.238082 -3.79699
lowerneck 6.73113 2.34033 -8.50749
upperneck 38.7224 -3.95766 11.4421
head 12.0013 -3.16243 5.48109
rclavicle 2.19657e-014 -6.36111e-015
rhumerus 84.3358 -5.377 -67.7717
rradius 38.4085
rwrist 5.10149
rhand -18.9242 30.0944
rfingers 7.12502
rthumb 7.37827 0.243082
lclavicle 2.19657e-014 -6.36111e-015
lhumerus 91.0873 8.45144 64.428
lradius 37.2267
lwrist -35.339
lhand -16.9974 18.9889
lfingers 7.12502
lthumb 9.23787 48.7665
rfemur -30.5785 2.25146 29.2487
rtibia 49.1936
rfoot 12.9241 -1.27228
rtoes 1.65094
lfemur -32.0338 4.40908 -19.8063
ltibia 41.9104
lfoot 3.60759 2.29758
ltoes -31.2142
711
root 3.00176 17.3632 1.37718 170.156 -73.8227 -158.293
lowerback 13.1572 0.66341 4.15174
upperback -4.04132 1.49737 -1.16842
thorax -11.7145 0.348089 -3.97435
lowerneck 6.8223 2.29618 -8.19627
upperneck 38.4733 -3.97774 11.4408
head 11.8722 -3.11267 5.4108
rclavicle -3.62782e-014 -3.26007e-014
rhumerus 84.5182 -5.95024 -66.8826
rradius 37.3604
rwrist 5.02584
rhand -19.2777 29.7497
rfingers 7.12502
rthumb 7.03711 -0.113324
lclavicle -3.62782e-014 -3.26007e-014
lhumerus 91.1975 8.13714 63.9913
lradius 36.3881
lwrist -35.2003
lhand -17.6955 20.3283
lfingers 7.12502
lthumb 8.5642 50.1346
rfemur -30.7185 1.83682 28.6989
rtibia 49.3115
rfoot 12.7387 -0.998016
rtoes -1.59601
lfemur -32.5269 4.52667 -20.5051
ltibia 42.6304
lfoot 4.32848 2.47744
ltoes -27.9691
712
root 3.24532 17.3931 1.41017 170.019 -73.3276 -157.92
lowerback 13.0611 0.831014 4.55581
upperback -3.81619 1.75755 -1.441
thorax -11.3593 0.447239 -4.55248
lowerneck 7.13905 2.25215 -7.58875
upperneck 38.0325 -4.04427 11.5807
head 11.6222 -3.03968 5.3295
rclavicle -3.97569e-015 -6.36111e-015
rhumerus 84.4848 -6.48405 -66.3618
rradius 36.3412
rwrist 4.91289
rhand -20.0881 30.546
rfingers 7.12502
rthumb 6.25471 0.65833
lclavicle -3.97569e-015 -6.36111e-015
lhumerus 91.0707 8.00418 62.4287
lradius 35.9625
lwrist -34.2939
lhand -18.3513 21.6543
lfingers 7.12502
lthumb 7.93127 51.4855
rfemur -30.0229 1.8228 28.9047
rtibia 49.4193
rfoot 12.5862 -1.39643
rtoes -4.19772
lfemur -32.2819 5.04485 -20.3188
ltibia 43.509
lfoot 5.01502 2.42528
ltoes -25.3326
713
root 3.47336 17.4365 1.43427 167.237 -73.038 -155.439
lowerback 13.2743 0.756563 5.40308
upperback -3.41236 1.82763 -1.29724
thorax -11.0083 0.450751 -4.88874
lowerneck 7.40718 2.32141 -7.57276
upperneck 37.7139 -3.94847 11.7287
head 11.4215 -2.97826 5.37774
rclavicle 1.86858e-014 2.70347e-014
rhumerus 84.2617 -6.52946 -65.4545
rradius 35.8042
rwrist 3.9351
rhand -20.2584 30.2488
rfingers 7.12502
rthumb 6.09039 0.356327
lclavicle 1.86858e-014 2.70347e-014
lhumerus 90.9849 8.25953 61.5216
lradius 35.5188
lwrist -33.1947
lhand -17.9441 21.9937
lfingers 7.12502
lthumb 8.32427 51.8097
rfemur -28.4974 2.12159 29.402
rtibia 49.6844
rfoot 12.203 -2.91661
rtoes -3.35856
lfemur -31.2706 5.59375 -19.4422
ltibia 44.1979
lfoot 5.5437 2.2224
ltoes -22.507
714
root 3.72658 17.433 1.48614 168.23 -72.876 -155.98
lowerback 13.1273 0.807559 5.51218
upperback -3.30101 1.87758 -1.54885
thorax -10.7795 0.468956 -5.22925
lowerneck 7.47269 2.21684 -6.93995
upperneck 37.4709 -4.03561 11.6117
head 11.3099 -2.93339 5.19717
rclavicle -1.90833e-014 -2.38542e-015
rhumerus 84.118 -7.05415 -64.788
rradius 35.2122
rwrist 2.4473
rhand -19.8909 29.9458
rfingers 7.12502
rthumb 6.4451 0.063843
lclavicle -1.90833e-014 -2.38542e-015
lhumerus 91.1547 8.57881 60.8696
lradius 35.5449
lwrist -30.7564
lhand -16.2138 21.0673
lfingers 7.12502
lthumb 9.99386 50.81
rfemur -28.2673 2.30191 29.0742
rtibia 50.0914
rfoot 11.3926 -5.50536
rtoes 14.6923
lfemur -31.5175 5.98606 -19.6672
ltibia 44.9893
lfoot 6.46604 1.92691
ltoes -21.5359
715
root 3.97615 17.4163 1.52958 173.962 -73.0945 -161.448
lowerback 12.9041 0.993319 3.95059
upperback -3.20449 1.7488 -2.40318
thorax -10.5653 0.482762 -5.23596
lowerneck 7.71684 1.98102 -5.5367
upperneck 37.0832 -4.31501 11.4505
head 11.1226 -2.88861 4.83896
rclavicle 2.80286e-014 4.29375e-014
rhumerus 83.9171 -8.11918 -64.5178
rradius 34.3877
rwrist 0.573985
rhand -19.707 30.2306
rfingers 7.12502
rthumb 6.62268 0.354171
lclavicle 2.80286e-014 4.29375e-014
lhumerus 90.4958 9.12674 58.2193
lradius 36.069
lwrist -29.4198
lhand -16.1892 22.4233
lfingers 7.12502
lthumb 10.0176 52.1648
rfemur -28.2405 1.28396 27.5377
rtibia 50.6208
rfoot 12.1567 -1.34008
rtoes -19.7761
lfemur -31.6948 6.2705 -21.5062
ltibia 45.7065
lfoot 7.4315 1.66909
ltoes -20.0971
